<svg aria-hidden="true" style="position: absolute; width: 0; height: 0; overflow: hidden;" version="1.1" xmlns="http://www.w3.org/2000/svg" xmlns:xlink="http://www.w3.org/1999/xlink">
<defs>
<symbol id="icon-Petrol" viewBox="0 0 32 32">
<path d="M6 5c0-0.552 0.448-1 1-1v0h10c0.552 0 1 0.448 1 1v0 10c0 0.552-0.448 1-1 1v0h-10c-0.552 0-1-0.448-1-1v0-10z"></path>
<path d="M2 4c0-2.209 1.791-4 4-4v0h12c2.209 0 4 1.791 4 4v0 16c2.209 0 4 1.791 4 4v0 1c0 0.552 0.448 1 1 1s1-0.448 1-1v0-9h-1c-0.552 0-1-0.448-1-1v0-6.25c0-0.552 0.448-1 1-1v0h2.99c-0.022-0.952-0.107-1.789-0.403-2.445-0.163-0.386-0.436-0.7-0.779-0.91l-0.008-0.005c-0.368-0.221-0.928-0.39-1.8-0.39-0.552 0-1-0.448-1-1s0.448-1 1-1v0c1.128-0.003 2.069 0.221 2.824 0.672 0.766 0.456 1.269 1.102 1.587 1.814 0.592 1.31 0.589 2.93 0.589 4.162v6.35c0 0 0 0.001 0 0.002 0 0.552-0.448 1-1 1h-1v9c0 1.657-1.343 3-3 3s-3-1.343-3-3v0-1c0-1.105-0.895-2-2-2v0 8h1c0.552 0 1 0.448 1 1s-0.448 1-1 1v0h-22c-0.552 0-1-0.448-1-1s0.448-1 1-1v0h1v-26zM20 4c0-1.105-0.895-2-2-2v0h-12c-1.105 0-2 0.895-2 2v0 26h16v-26z"></path>
</symbol>
<symbol id="icon-City" viewBox="0 0 32 32">
<path fill="#6c717b" style="fill: var(--color1, #6c717b)" d="M31.634 0.226c0.224 0.185 0.366 0.462 0.366 0.773 0 0.001 0 0.001 0 0.002v-0 28c-0.001 0.483-0.343 0.885-0.798 0.978l-0.006 0.001-10 2c-0.059 0.012-0.127 0.019-0.196 0.019s-0.137-0.007-0.202-0.020l0.006 0.001-9.803-1.96-9.803 1.96c-0.059 0.012-0.127 0.020-0.197 0.020-0.552 0-0.999-0.447-1-0.999v-28c0-0 0-0 0-0 0-0.483 0.342-0.885 0.797-0.979l0.006-0.001 10-2c0.059-0.012 0.127-0.019 0.196-0.019s0.137 0.007 0.202 0.021l-0.006-0.001 9.805 1.96 9.805-1.96c0.059-0.012 0.127-0.019 0.196-0.019 0.241 0 0.462 0.085 0.635 0.227l-0.002-0.001zM20 3.819l-8-1.6v25.96l8 1.6v-25.96zM22 29.779l8-1.6v-25.96l-8 1.6v25.96zM10 28.179v-25.96l-8 1.6v25.96l8-1.6z"></path>
</symbol>
<symbol id="icon-Radio" viewBox="0 0 32 32">
<path d="M14 5c0-0.552 0.448-1 1-1v0h14c0.552 0 1 0.448 1 1v0 2c0 0.552-0.448 1-1 1v0h-14c-0.552 0-1-0.448-1-1v0-2zM0 24c0-3.314 2.686-6 6-6s6 2.686 6 6v0c0 3.314-2.686 6-6 6s-6-2.686-6-6v0zM14 21c0-0.552 0.448-1 1-1v0h14c0 0 0.001 0 0.002 0 0.551 0 0.998 0.447 0.998 0.998 0 0.001 0 0.001 0 0.002v-0 2c0 0 0 0.001 0 0.002 0 0.551-0.447 0.998-0.998 0.998-0.001 0-0.001 0-0.002 0h-14c-0.552 0-1-0.448-1-1v0-2zM14 11c0-0.552 0.448-1 1-1v0h10c0.552 0 1 0.448 1 1s-0.448 1-1 1v0h-10c-0.552 0-1-0.448-1-1v0zM14 27c0-0.552 0.448-1 1-1v0h10c0.552 0 1 0.448 1 1s-0.448 1-1 1v0h-10c-0.552 0-1-0.448-1-1v0zM6 2c-3.314 0-6 2.686-6 6s2.686 6 6 6v0c3.314 0 6-2.686 6-6s-2.686-6-6-6v0zM6 11c-1.657 0-3-1.343-3-3s1.343-3 3-3v0c1.657 0 3 1.343 3 3s-1.343 3-3 3v0z"></path>
</symbol>
</defs>
</svg>
