<svg aria-hidden="true" style="position: absolute; width: 0; height: 0; overflow: hidden;" version="1.1" xmlns="http://www.w3.org/2000/svg" xmlns:xlink="http://www.w3.org/1999/xlink">
<defs>
<symbol id="icon-Logo" viewBox="0 0 272 32">
<path fill="#475467" style="fill: var(--color1, #475467)" d="M270.786 14.376h-7.216c-0.031-0.443-0.204-0.841-0.472-1.155l0.002 0.003c-0.283-0.325-0.64-0.578-1.046-0.734l-0.018-0.006c-0.405-0.17-0.876-0.268-1.369-0.268-0.018 0-0.037 0-0.055 0l0.003-0c-0.672 0-1.25 0.124-1.732 0.37-0.484 0.246-0.72 0.596-0.71 1.050-0.010 0.322 0.128 0.62 0.412 0.896 0.292 0.274 0.856 0.486 1.69 0.64l4.432 0.794c2.234 0.408 3.896 1.094 4.986 2.060 1.098 0.956 1.652 2.24 1.662 3.85-0.010 1.552-0.474 2.9-1.392 4.048-0.91 1.136-2.156 2.016-3.736 2.64-1.572 0.616-3.368 0.924-5.384 0.924-3.334 0-5.942-0.68-7.826-2.044-1.876-1.364-2.922-3.164-3.14-5.4h7.784c0.104 0.692 0.446 1.228 1.022 1.606 0.588 0.37 1.326 0.554 2.216 0.554 0.72 0 1.312-0.122 1.776-0.368 0.474-0.246 0.716-0.598 0.724-1.052-0.008-0.416-0.218-0.748-0.624-0.994-0.398-0.246-1.024-0.446-1.876-0.596l-3.862-0.682c-2.226-0.388-3.892-1.128-5-2.216-1.108-1.090-1.658-2.492-1.648-4.206-0.010-1.514 0.388-2.798 1.192-3.848 0.814-1.060 1.974-1.866 3.48-2.416 1.516-0.558 3.31-0.838 5.384-0.838 3.154 0 5.64 0.654 7.458 1.96 1.828 1.308 2.788 3.116 2.884 5.426zM232.83 23.92l0.056-9.318h1.024l5.284-7.33h8.806l-8.864 11.42h-2.216l-4.090 5.228zM225.784 29.090v-29.090h7.842v29.092h-7.842zM239.25 29.090l-5-8.636 5.114-5.568 8.864 14.206h-8.978zM211.238 29.488c-2.368 0-4.394-0.468-6.080-1.406-1.656-0.926-2.98-2.272-3.853-3.896l-0.025-0.052c-0.9-1.696-1.348-3.66-1.348-5.896 0-2.234 0.448-4.194 1.348-5.88 0.893-1.68 2.218-3.028 3.829-3.923l0.049-0.025c1.686-0.948 3.712-1.42 6.080-1.42 2.14 0 3.992 0.386 5.554 1.164 1.572 0.766 2.788 1.856 3.65 3.266 0.862 1.402 1.298 3.050 1.308 4.944h-7.274c-0.104-1.146-0.436-2.018-0.994-2.614-0.55-0.606-1.26-0.91-2.13-0.91-0.682 0-1.28 0.2-1.79 0.598-0.512 0.388-0.91 0.98-1.194 1.776-0.284 0.786-0.426 1.774-0.426 2.968s0.142 2.188 0.426 2.982c0.284 0.786 0.682 1.38 1.194 1.776 0.51 0.388 1.108 0.582 1.79 0.582 0.578 0 1.088-0.132 1.534-0.396 0.444-0.276 0.804-0.674 1.080-1.194 0.284-0.53 0.454-1.174 0.51-1.932h7.274c-0.030 1.922-0.47 3.6-1.322 5.028-0.852 1.42-2.060 2.52-3.622 3.296-1.554 0.776-3.41 1.164-5.568 1.164zM188.098 19.546v-12.274h7.84v21.82h-7.442v-4.148h-0.228c-0.452 1.367-1.325 2.493-2.463 3.252l-0.023 0.014c-1.184 0.776-2.59 1.164-4.22 1.164-1.524 0-2.86-0.35-4.004-1.050-1.136-0.709-2.041-1.691-2.637-2.857l-0.019-0.041c-0.626-1.23-0.942-2.642-0.952-4.232v-13.92h7.84v12.272c0.010 1.080 0.284 1.926 0.824 2.542 0.55 0.616 1.316 0.924 2.3 0.924 0.656 0 1.22-0.138 1.692-0.412 0.484-0.284 0.852-0.682 1.108-1.194 0.266-0.52 0.394-1.14 0.384-1.86zM155.806 29.092v-21.82h7.614v4.148h0.226c0.4-1.534 1.028-2.656 1.89-3.366 0.803-0.664 1.843-1.067 2.977-1.067 0.027 0 0.054 0 0.081 0.001l-0.004-0c0.34 0 0.676 0.030 1.008 0.086 0.34 0.048 0.668 0.12 0.98 0.212v6.694c-0.415-0.139-0.901-0.245-1.404-0.297l-0.030-0.003c-0.433-0.058-0.94-0.094-1.454-0.1l-0.008-0c-0.768 0-1.46 0.176-2.074 0.528-0.606 0.34-1.086 0.822-1.436 1.448-0.35 0.616-0.526 1.34-0.526 2.174v11.362h-7.84zM128.9 6.364v-6.364h25.286v6.364h-8.75v22.728h-7.784v-22.73h-8.752z"></path>
<path fill="#101828" style="fill: var(--color2, #101828)" d="M125.016 0v29.092h-7.84v-29.092h7.84zM102.494 29.488c-2.33 0-4.338-0.444-6.024-1.334-1.658-0.889-2.983-2.21-3.854-3.815l-0.024-0.049c-0.9-1.686-1.348-3.702-1.348-6.052 0-2.254 0.454-4.222 1.362-5.908 0.896-1.666 2.209-3.006 3.802-3.911l0.048-0.025c1.658-0.936 3.614-1.406 5.866-1.406 1.648 0 3.14 0.256 4.476 0.768 1.34 0.51 2.483 1.269 3.42 2.228l0.002 0.002c0.948 0.966 1.676 2.14 2.188 3.522 0.512 1.384 0.768 2.94 0.768 4.674v1.818h-19.49v-4.32h12.274c0-0.003 0-0.006 0-0.009 0-0.608-0.181-1.175-0.491-1.648l0.007 0.011c-0.304-0.48-0.722-0.862-1.218-1.114l-0.018-0.008c-0.488-0.26-1.067-0.413-1.682-0.413-0.023 0-0.045 0-0.068 0.001l0.003-0c-0.636 0-1.218 0.138-1.748 0.412-0.524 0.26-0.955 0.636-1.273 1.097l-0.007 0.011c-0.31 0.474-0.476 1.028-0.496 1.66v4.66c0 0.7 0.148 1.326 0.44 1.876 0.294 0.55 0.716 0.98 1.266 1.292 0.548 0.314 1.212 0.47 1.988 0.47 0.54 0 1.032-0.076 1.478-0.228 0.454-0.152 0.842-0.37 1.164-0.654 0.32-0.292 0.56-0.644 0.71-1.050h7.16c-0.233 1.518-0.855 2.861-1.759 3.962l0.011-0.014c-0.92 1.108-2.136 1.97-3.65 2.586-1.506 0.606-3.268 0.908-5.284 0.908zM89.672 7.272l-7.328 21.82h-9.092l-7.33-21.82h8.24l3.522 14.432h0.228l3.522-14.432h8.24zM50.112 29.432c-1.392 0-2.624-0.228-3.694-0.682-1.042-0.449-1.894-1.173-2.487-2.081l-0.013-0.021c-0.606-0.938-0.908-2.132-0.908-3.58 0-1.194 0.204-2.212 0.61-3.054 0.401-0.844 0.979-1.545 1.692-2.078l0.014-0.010c0.728-0.54 1.576-0.952 2.54-1.236 0.922-0.274 1.998-0.471 3.106-0.551l0.050-0.003c1.22-0.094 2.2-0.208 2.94-0.34 0.748-0.142 1.288-0.336 1.62-0.582 0.302-0.223 0.496-0.578 0.496-0.978 0-0.011-0-0.022-0-0.033l0 0.002v-0.056c0-0.568-0.218-1.004-0.654-1.308-0.436-0.302-0.994-0.454-1.676-0.454-0.748 0-1.36 0.166-1.832 0.498-0.464 0.32-0.744 0.82-0.838 1.49h-7.216c0.097-1.378 0.556-2.632 1.28-3.689l-0.016 0.025c0.758-1.126 1.86-2.026 3.31-2.7 1.448-0.68 3.258-1.020 5.426-1.020 1.562 0 2.964 0.184 4.204 0.552 1.24 0.36 2.296 0.868 3.168 1.52 0.872 0.644 1.534 1.402 1.988 2.274 0.464 0.86 0.696 1.8 0.696 2.812v14.944h-7.328v-3.072h-0.172c-0.406 0.779-0.939 1.436-1.58 1.968l-0.010 0.008c-0.616 0.5-1.32 0.866-2.116 1.092-0.749 0.216-1.61 0.341-2.499 0.341-0.035 0-0.071-0-0.106-0.001l0.005 0zM52.668 24.488c0.598 0 1.156-0.122 1.676-0.368 0.532-0.246 0.962-0.602 1.294-1.066s0.496-1.028 0.496-1.69v-1.82c-0.157 0.068-0.377 0.15-0.602 0.224l-0.064 0.018c-0.415 0.14-0.94 0.277-1.475 0.384l-0.087 0.014c-0.176 0.041-0.48 0.096-0.786 0.144l-0.11 0.014c-0.556 0.073-1.060 0.238-1.516 0.48l0.024-0.012c-0.38 0.208-0.662 0.468-0.852 0.78-0.17 0.285-0.27 0.628-0.27 0.994 0 0.010 0 0.021 0 0.031l-0-0.002c0 0.606 0.214 1.070 0.64 1.392 0.426 0.32 0.97 0.482 1.632 0.482zM26.904 29.092v-21.82h7.614v4.148h0.228c0.396-1.534 1.026-2.656 1.888-3.366 0.803-0.664 1.843-1.067 2.977-1.067 0.027 0 0.054 0 0.081 0.001l-0.004-0c0.34 0 0.678 0.030 1.010 0.086 0.34 0.048 0.666 0.12 0.98 0.212v6.694c-0.416-0.139-0.903-0.245-1.406-0.297l-0.030-0.003c-0.433-0.058-0.94-0.094-1.454-0.1l-0.008-0c-0.768 0-1.46 0.176-2.074 0.528-0.606 0.34-1.084 0.822-1.436 1.448-0.35 0.616-0.524 1.34-0.524 2.174v11.362h-7.84zM0 6.364v-6.364h25.284v6.364h-8.75v22.728h-7.784v-22.73h-8.75z"></path>
</symbol>
</defs>
</svg>
